<svg viewBox="0 0 178 49" fill="none" xmlns="http://www.w3.org/2000/svg">
<g id="Logotype">
<g id="Frame 2608782">
<g id="Reniae">
<path d="M38.6794 41.3951C39.2091 42.269 40.0192 42.9401 41.1097 43.4082C42.2003 43.8452 43.3064 44.0637 44.4281 44.0637V44.6723H32.8839V44.0637C33.9121 44.0637 34.5197 43.8452 34.7067 43.4082C34.8936 42.9713 34.6911 42.3002 34.0991 41.3951L24.144 24.4007L19.6571 27.0225C18.5043 27.6779 17.4605 28.2553 16.5257 28.7547V40.5993C16.5257 41.6292 16.8373 42.4719 17.4605 43.1273C18.1148 43.7516 18.9561 44.0637 19.9843 44.0637V44.6723H9.56179C8.40892 44.6411 7.44301 44.4538 6.66405 44.1105C5.88509 43.7672 5.30866 43.3146 4.93475 42.7528C4.59201 42.191 4.34274 41.6604 4.18695 41.161C4.06232 40.6305 4 40.0843 4 39.5225C4 38.2116 4.48296 36.9164 5.44887 35.6367C6.44594 34.3571 7.62996 33.2491 9.00093 32.3127L13.0204 29.5506V8.10861C13.0204 7.04744 12.6932 6.20474 12.0389 5.58053C11.4157 4.92509 10.59 4.59738 9.56179 4.59738V4.03558H26.3406C27.9609 4.03558 29.4097 4.19164 30.6872 4.50375C31.9647 4.78465 33.1176 5.25281 34.1458 5.90824C35.1741 6.53246 35.9686 7.40637 36.5294 8.52996C37.0903 9.62235 37.3707 10.9332 37.3707 12.4625C37.3707 13.0243 37.2928 13.5861 37.137 14.1479C36.9812 14.7097 36.7476 15.2403 36.436 15.7397C36.1244 16.2079 35.7972 16.6604 35.4545 17.0974C35.1117 17.5343 34.6755 17.9557 34.1458 18.3614C33.6473 18.7672 33.1799 19.1261 32.7437 19.4382C32.3386 19.7503 31.8401 20.0936 31.2481 20.4682C30.6561 20.8115 30.1575 21.0924 29.7525 21.3109C29.3786 21.4981 28.9112 21.7478 28.3503 22.0599C27.8207 22.3408 27.4467 22.5437 27.2286 22.6685L38.6794 41.3951ZM9.56179 44.0637C10.2473 44.0637 10.8549 43.9232 11.3846 43.6423C11.9143 43.3614 12.3193 42.9557 12.5997 42.4251C12.8802 41.8945 13.0204 41.2859 13.0204 40.5993V30.2528L9.3281 32.7809C8.61145 33.2491 7.95713 33.7796 7.36511 34.3727C6.7731 34.9345 6.27457 35.5119 5.86951 36.1049C5.46445 36.6667 5.13728 37.2441 4.88802 37.8371C4.66991 38.4301 4.56085 38.9919 4.56085 39.5225C4.56085 40.1155 4.62317 40.6461 4.7478 41.1142C4.9036 41.5824 5.15286 42.0506 5.49561 42.5187C5.83835 42.9869 6.35246 43.3614 7.03795 43.6423C7.72344 43.9232 8.56472 44.0637 9.56179 44.0637ZM16.5257 28.1461L26.808 22.2004C27.4623 21.8258 28.0855 21.4357 28.6775 21.03C29.2695 20.593 29.8927 20.0624 30.547 19.4382C31.2013 18.7828 31.7622 18.1273 32.2296 17.4719C32.7281 16.7853 33.1332 16.005 33.4448 15.1311C33.7563 14.2572 33.9121 13.3677 33.9121 12.4625C33.9121 10.1217 33.2266 8.23346 31.8557 6.79775C30.4847 5.33084 28.6464 4.59738 26.3406 4.59738H19.9843C18.9249 4.59738 18.0836 4.92509 17.4605 5.58053C16.8373 6.20474 16.5257 7.04744 16.5257 8.10861V28.1461Z" fill="#111111"/>
<path d="M70.3321 34.1854H70.9397L70.893 39.8034C69.709 41.2703 67.9329 42.5031 65.5649 43.5019C63.1968 44.4694 60.6418 44.9532 57.8999 44.9532C56.155 44.9532 54.5192 44.6723 52.9924 44.1105C51.4657 43.5487 50.1414 42.7996 49.0197 41.8633C47.898 40.8958 46.9321 39.7722 46.122 38.4925C45.3119 37.2129 44.7043 35.8396 44.2992 34.3727C43.8942 32.9057 43.6916 31.392 43.6916 29.8315C43.6916 28.5518 43.8318 27.2878 44.1123 26.0393C44.4239 24.7909 44.8445 23.6049 45.3742 22.4813C45.935 21.3577 46.6205 20.3277 47.4306 19.3914C48.2719 18.4238 49.2067 17.5968 50.2349 16.9101C51.2631 16.2235 52.4316 15.6929 53.7402 15.3184C55.0489 14.9438 56.4354 14.7566 57.8999 14.7566C59.5513 14.7566 61.0936 14.9906 62.5269 15.4588C63.9602 15.927 65.2533 16.6448 66.4062 17.6124C67.5902 18.5487 68.5249 19.8127 69.2104 21.4045C69.8959 22.9963 70.2386 24.8221 70.2386 26.882L56.1706 26.8352H56.1239C54.1297 26.7728 52.6809 26.2266 51.7773 25.1966C50.8737 24.2291 50.5153 22.887 50.7023 21.1704C50.8269 19.8595 51.4345 18.6423 52.5251 17.5187C49.7831 19.329 48.0227 22.2316 47.2437 26.2266L47.1035 26.8352C46.9477 27.6779 46.8698 28.6767 46.8698 29.8315C46.8698 32.2035 47.3216 34.4507 48.2252 36.573C49.1288 38.6954 50.4374 40.4276 52.1512 41.7697C53.8649 43.1117 55.7811 43.7828 57.8999 43.7828C59.3643 43.7828 60.7353 43.6111 62.0128 43.2678C63.2903 42.9245 64.5055 42.3939 65.6584 41.676C66.8112 40.9582 67.7927 39.9594 68.6028 38.6798C69.4441 37.4001 70.0205 35.902 70.3321 34.1854ZM67.154 26.3202C67.154 23.5424 66.2659 21.1548 64.4899 19.1573C62.745 17.1286 60.6574 16.0518 58.2271 15.927C57.9778 15.927 57.7441 15.927 57.526 15.927C57.4637 15.927 57.1988 15.9582 56.7314 16.0206C55.3916 16.2079 54.2699 16.6916 53.3663 17.4719C52.12 18.4707 51.4345 19.7347 51.3099 21.264C51.1541 22.7934 51.4501 23.9638 52.1979 24.7753C53.1015 25.774 54.5192 26.2734 56.451 26.2734H56.5445L67.154 26.3202Z" fill="#111111"/>
<path d="M77.1577 18.97C77.1577 18.3146 77.033 17.7684 76.7837 17.3315C76.5656 16.8633 76.2696 16.5512 75.8957 16.3951C75.5218 16.2079 75.2103 16.0986 74.961 16.0674C74.7117 16.005 74.478 15.9738 74.2599 15.9738V15.3652L79.4945 15.3184H80.0554V23.0899C81.0525 20.7491 82.5325 18.7828 84.4955 17.191C86.4896 15.568 88.7019 14.7566 91.1322 14.7566C93.0329 14.7566 94.6687 15.1311 96.0397 15.8801C97.4107 16.6292 98.4701 17.7528 99.2179 19.2509C99.9657 20.7179 100.34 22.5125 100.34 24.6348V40.8801C100.34 41.7541 100.604 42.4563 101.134 42.9869C101.664 43.5175 102.365 43.7828 103.237 43.7828V44.3446H94.5441V43.7828C95.4165 43.7828 96.1176 43.5175 96.6473 42.9869C97.177 42.4563 97.4418 41.7541 97.4418 40.8801V24.7285C97.4418 22.1692 96.7719 20.1561 95.4321 18.6891C94.1234 17.191 92.4409 16.4419 90.3844 16.4419C87.8294 16.4419 85.6172 17.3315 83.7477 19.1105C81.8782 20.8583 80.6474 23.0743 80.0554 25.7584V40.8801C80.0554 41.7541 80.3202 42.4563 80.8499 42.9869C81.3796 43.5175 82.0807 43.7828 82.9531 43.7828V44.3446H74.2599V43.7828C75.1324 43.7828 75.8334 43.5175 76.3631 42.9869C76.8928 42.4563 77.1577 41.7541 77.1577 40.8801V18.97Z" fill="#111111"/>
<path d="M111.777 40.8801C111.777 41.7541 112.042 42.4563 112.571 42.9869C113.101 43.5175 113.802 43.7828 114.675 43.7828V44.3446H105.981V43.7828C106.854 43.7828 107.555 43.5175 108.085 42.9869C108.614 42.4251 108.879 41.7228 108.879 40.8801V18.4082C108.879 17.4719 108.49 16.7853 107.711 16.3483C106.932 15.8801 106.355 15.7553 105.981 15.9738V15.3652L111.216 15.3184H111.777C113.272 13.9763 114.051 12.4938 114.114 10.8708C114.145 9.65356 113.724 8.70162 112.852 8.01498C112.01 7.29713 110.873 6.98502 109.44 7.07865C108.162 7.17228 107.399 6.79775 107.15 5.95506C106.963 5.2372 107.228 4.6754 107.944 4.26966C108.599 3.89513 109.424 3.91074 110.421 4.31648C111.356 4.69101 112.166 5.28402 112.852 6.09551C113.568 6.90699 114.098 7.84332 114.441 8.90449C114.784 9.93446 114.737 11.0893 114.301 12.3689C113.864 13.6486 113.023 14.8658 111.777 16.0206V40.8801Z" fill="#111111"/>
<path d="M142.158 42.9869C142.626 42.9869 143.109 42.862 143.607 42.6124V43.1742L142.86 43.5955C141.894 44.1261 141.037 44.3914 140.289 44.3914C139.51 44.3914 138.902 44.1105 138.466 43.5487C138.03 42.9869 137.812 42.2066 137.812 41.2079V40.8801C136.472 42.191 134.867 43.2054 132.998 43.9232C131.128 44.6411 129.243 45 127.343 45C124.788 45 122.591 44.3914 120.753 43.1742C118.914 41.9569 117.839 40.2247 117.528 37.9775C117.341 36.573 117.403 35.3402 117.715 34.279C118.057 33.2179 118.634 32.3439 119.444 31.6573C120.254 30.9394 121.127 30.362 122.061 29.9251C123.027 29.4881 124.18 29.098 125.52 28.7547C124.492 27.3502 123.993 25.5712 124.024 23.4176C124.024 22.1067 124.211 20.9363 124.585 19.9064C124.99 18.8764 125.473 18.0649 126.034 17.4719C126.626 16.8477 127.296 16.3327 128.044 15.927C128.823 15.5212 129.57 15.2559 130.287 15.1311C131.035 14.975 131.783 14.897 132.531 14.897C135.179 14.897 137.204 15.8177 138.606 17.6592C140.009 19.5006 140.71 22.0131 140.71 25.1966V41.161C140.71 41.7541 140.834 42.2066 141.084 42.5187C141.364 42.8308 141.722 42.9869 142.158 42.9869ZM137.812 28.3801V26.367C136.721 26.96 134.712 27.5687 131.783 28.1929C128.854 28.7859 127.187 29.1292 126.782 29.2228C128.059 30.4401 129.866 31.0487 132.203 31.0487C133.356 31.0487 134.447 30.7678 135.475 30.206C136.503 29.6442 137.282 29.0356 137.812 28.3801ZM124.772 23.5581C124.772 25.6492 125.255 27.319 126.221 28.5674C127.156 28.3489 128.511 28.0836 130.287 27.7715C132.094 27.4594 133.605 27.1629 134.821 26.882C136.036 26.5699 137.033 26.1954 137.812 25.7584V25.2903C137.812 24.3539 137.796 23.5893 137.765 22.9963C137.734 22.372 137.672 21.6386 137.578 20.7959C137.485 19.922 137.313 19.2197 137.064 18.6891C136.815 18.1273 136.503 17.5811 136.129 17.0506C135.755 16.52 135.241 16.1298 134.587 15.8801C133.964 15.6305 133.232 15.5056 132.39 15.5056C131.206 15.5056 130.053 15.7865 128.932 16.3483C127.81 16.9101 126.829 17.8308 125.987 19.1105C125.177 20.3901 124.772 21.8727 124.772 23.5581ZM128.605 43.6891C130.194 43.6891 131.798 43.3614 133.419 42.706C135.039 42.0193 136.503 41.0206 137.812 39.7097V29.0356C137.282 29.7222 136.612 30.284 135.802 30.721C134.992 31.1267 134.307 31.392 133.746 31.5169C133.185 31.6417 132.671 31.7041 132.203 31.7041C129.555 31.7041 127.498 30.9551 126.034 29.4569C124.009 30.0811 122.482 31.0019 121.454 32.2191C120.457 33.4051 120.114 35.1217 120.425 37.3689C120.706 39.3352 121.609 40.8801 123.136 42.0037C124.663 43.1273 126.486 43.6891 128.605 43.6891Z" fill="#111111"/>
<path d="M173.392 34.1854H174L173.953 39.8034C172.769 41.2703 170.993 42.5031 168.625 43.5019C166.257 44.4694 163.702 44.9532 160.96 44.9532C159.215 44.9532 157.579 44.6723 156.053 44.1105C154.526 43.5487 153.202 42.7996 152.08 41.8633C150.958 40.8958 149.992 39.7722 149.182 38.4925C148.372 37.2129 147.765 35.8396 147.36 34.3727C146.954 32.9057 146.752 31.392 146.752 29.8315C146.752 28.5518 146.892 27.2878 147.173 26.0393C147.484 24.7909 147.905 23.6049 148.434 22.4813C148.995 21.3577 149.681 20.3277 150.491 19.3914C151.332 18.4238 152.267 17.5968 153.295 16.9101C154.323 16.2235 155.492 15.6929 156.801 15.3184C158.109 14.9438 159.496 14.7566 160.96 14.7566C162.612 14.7566 164.154 14.9906 165.587 15.4588C167.021 15.927 168.314 16.6448 169.466 17.6124C170.65 18.5487 171.585 19.8127 172.271 21.4045C172.956 22.9963 173.299 24.8221 173.299 26.882L159.231 26.8352H159.184C157.19 26.7728 155.741 26.2266 154.838 25.1966C153.934 24.2291 153.576 22.887 153.763 21.1704C153.887 19.8595 154.495 18.6423 155.585 17.5187C152.843 19.329 151.083 22.2316 150.304 26.2266L150.164 26.8352C150.008 27.6779 149.93 28.6767 149.93 29.8315C149.93 32.2035 150.382 34.4507 151.285 36.573C152.189 38.6954 153.498 40.4276 155.211 41.7697C156.925 43.1117 158.841 43.7828 160.96 43.7828C162.425 43.7828 163.796 43.6111 165.073 43.2678C166.351 42.9245 167.566 42.3939 168.719 41.676C169.872 40.9582 170.853 39.9594 171.663 38.6798C172.504 37.4001 173.081 35.902 173.392 34.1854ZM170.214 26.3202C170.214 23.5424 169.326 21.1548 167.55 19.1573C165.805 17.1286 163.718 16.0518 161.287 15.927C161.038 15.927 160.804 15.927 160.586 15.927C160.524 15.927 160.259 15.9582 159.792 16.0206C158.452 16.2079 157.33 16.6916 156.427 17.4719C155.18 18.4707 154.495 19.7347 154.37 21.264C154.214 22.7934 154.51 23.9638 155.258 24.7753C156.162 25.774 157.579 26.2734 159.511 26.2734H159.605L170.214 26.3202Z" fill="#111111"/>
</g>
</g>
</g>
</svg>
